<mxfile host="drawio-plugin" modified="2025-04-20T07:59:22.915Z" agent="5.0 (Windows NT 6.2; Win64; x64) AppleWebKit/537.36 (KHTML, like Gecko) Chrome/97.0.4692.45 Safari/537.36" etag="3vzMh-d0A6SkGYwwEB4i" version="20.5.3" type="embed"><diagram id="6PQijgyDfugC4ER-ckgj" name="商品详情页"><mxGraphModel dx="643" dy="591" grid="0" gridSize="10" guides="1" tooltips="1" connect="1" arrows="1" fold="1" page="0" pageScale="1" pageWidth="900" pageHeight="1600" math="0" shadow="0"><root><mxCell id="0"/><mxCell id="1" parent="0"/><mxCell id="rkcu3EZUj1pYs4N78qEw-1" value="商品轮播页" style="rounded=1;whiteSpace=wrap;html=1;arcSize=3;" parent="1" vertex="1"><mxGeometry x="120" y="200" width="400" height="280" as="geometry"/></mxCell><mxCell id="rkcu3EZUj1pYs4N78qEw-3" value="&lt;span style=&quot;font-size: 14px;&quot;&gt;&lt;b&gt;操作系统导论&lt;/b&gt;&lt;/span&gt;" style="rounded=1;whiteSpace=wrap;html=1;align=left;strokeColor=none;" parent="1" vertex="1"><mxGeometry x="120" y="491" width="400" height="40" as="geometry"/></mxCell><mxCell id="rkcu3EZUj1pYs4N78qEw-5" value="" style="rounded=1;whiteSpace=wrap;html=1;arcSize=13;" parent="1" vertex="1"><mxGeometry x="120" y="581" width="400" height="40" as="geometry"/></mxCell><mxCell id="rkcu3EZUj1pYs4N78qEw-6" value="" style="rounded=1;whiteSpace=wrap;html=1;arcSize=13;" parent="1" vertex="1"><mxGeometry x="120" y="632" width="400" height="40" as="geometry"/></mxCell><mxCell id="rkcu3EZUj1pYs4N78qEw-4" value="" style="ellipse;whiteSpace=wrap;html=1;aspect=fixed;fontSize=14;" parent="1" vertex="1"><mxGeometry x="130" y="586" width="30" height="30" as="geometry"/></mxCell><mxCell id="rkcu3EZUj1pYs4N78qEw-7" value="" style="ellipse;whiteSpace=wrap;html=1;aspect=fixed;fontSize=14;" parent="1" vertex="1"><mxGeometry x="130" y="637" width="30" height="30" as="geometry"/></mxCell><mxCell id="rkcu3EZUj1pYs4N78qEw-8" value="立即抢单" style="rounded=1;whiteSpace=wrap;html=1;fontSize=14;fillColor=#00FF80;strokeColor=#B20000;fontColor=#ffffff;" parent="1" vertex="1"><mxGeometry x="431" y="586.5" width="80" height="30" as="geometry"/></mxCell><mxCell id="rkcu3EZUj1pYs4N78qEw-9" value="立即抢单" style="rounded=1;whiteSpace=wrap;html=1;fontSize=14;fillColor=#33FF99;strokeColor=#B20000;fontColor=#ffffff;" parent="1" vertex="1"><mxGeometry x="431" y="637.5" width="80" height="29" as="geometry"/></mxCell><mxCell id="rkcu3EZUj1pYs4N78qEw-10" value="hxy01" style="text;html=1;align=center;verticalAlign=middle;resizable=0;points=[];autosize=1;strokeColor=none;fillColor=none;fontSize=14;" parent="1" vertex="1"><mxGeometry x="168" y="587" width="55" height="29" as="geometry"/></mxCell><mxCell id="rkcu3EZUj1pYs4N78qEw-11" value="hxy" style="text;html=1;align=center;verticalAlign=middle;resizable=0;points=[];autosize=1;strokeColor=none;fillColor=none;fontSize=14;" parent="1" vertex="1"><mxGeometry x="175" y="638" width="40" height="29" as="geometry"/></mxCell><mxCell id="rkcu3EZUj1pYs4N78qEw-12" value="&amp;nbsp; &amp;nbsp;大促优惠 | 直降 ￥60，76人再抢，参与马上抢到" style="rounded=1;whiteSpace=wrap;html=1;arcSize=13;align=left;fillColor=#ffff88;strokeColor=#36393d;" parent="1" vertex="1"><mxGeometry x="120" y="541" width="400" height="30" as="geometry"/></mxCell><mxCell id="rkcu3EZUj1pYs4N78qEw-13" value="&lt;font style=&quot;font-size: 12px;&quot;&gt;拼单即将结束&lt;/font&gt;" style="rounded=1;whiteSpace=wrap;html=1;fontSize=14;fillColor=default;strokeColor=none;align=right;" parent="1" vertex="1"><mxGeometry x="322" y="633" width="100" height="20" as="geometry"/></mxCell><mxCell id="rkcu3EZUj1pYs4N78qEw-14" value="&lt;span style=&quot;font-size: 12px;&quot;&gt;00:05:49&lt;/span&gt;" style="rounded=1;whiteSpace=wrap;html=1;fontSize=14;fillColor=default;strokeColor=none;align=right;" parent="1" vertex="1"><mxGeometry x="322" y="651" width="100" height="20" as="geometry"/></mxCell><mxCell id="rkcu3EZUj1pYs4N78qEw-15" value="&lt;font style=&quot;font-size: 12px;&quot;&gt;拼单即将结束&lt;/font&gt;" style="rounded=1;whiteSpace=wrap;html=1;fontSize=14;fillColor=default;strokeColor=none;align=right;" parent="1" vertex="1"><mxGeometry x="322" y="582.5" width="100" height="20" as="geometry"/></mxCell><mxCell id="rkcu3EZUj1pYs4N78qEw-16" value="&lt;span style=&quot;font-size: 12px;&quot;&gt;00:05:49&lt;/span&gt;" style="rounded=1;whiteSpace=wrap;html=1;fontSize=14;fillColor=default;strokeColor=none;align=right;" parent="1" vertex="1"><mxGeometry x="322" y="600.5" width="100" height="20" as="geometry"/></mxCell><mxCell id="rkcu3EZUj1pYs4N78qEw-18" value="" style="rounded=1;whiteSpace=wrap;html=1;fontSize=12;fillColor=default;arcSize=8;" parent="1" vertex="1"><mxGeometry x="120" y="691" width="400" height="80" as="geometry"/></mxCell><mxCell id="rkcu3EZUj1pYs4N78qEw-19" value="单独购买" style="rounded=1;whiteSpace=wrap;html=1;fontSize=14;fillColor=#4C38FF;strokeColor=#36393d;arcSize=50;" parent="1" vertex="1"><mxGeometry x="435" y="708.75" width="80" height="44.5" as="geometry"/></mxCell><mxCell id="OsgkMpvyyOFpJFWNQCZw-13" style="edgeStyle=orthogonalEdgeStyle;rounded=0;orthogonalLoop=1;jettySize=auto;html=1;entryX=0;entryY=0.932;entryDx=0;entryDy=0;entryPerimeter=0;fontSize=15;fontColor=#666666;" parent="1" target="OsgkMpvyyOFpJFWNQCZw-1" edge="1"><mxGeometry relative="1" as="geometry"><mxPoint x="520" y="730" as="sourcePoint"/></mxGeometry></mxCell><mxCell id="OsgkMpvyyOFpJFWNQCZw-14" value="&lt;font color=&quot;#000000&quot;&gt;未登录&lt;/font&gt;" style="edgeLabel;html=1;align=center;verticalAlign=middle;resizable=0;points=[];fontSize=15;fontColor=#666666;" parent="OsgkMpvyyOFpJFWNQCZw-13" vertex="1" connectable="0"><mxGeometry x="0.0673" relative="1" as="geometry"><mxPoint as="offset"/></mxGeometry></mxCell><mxCell id="OsgkMpvyyOFpJFWNQCZw-15" style="edgeStyle=orthogonalEdgeStyle;rounded=0;orthogonalLoop=1;jettySize=auto;html=1;entryX=0.878;entryY=0;entryDx=0;entryDy=0;entryPerimeter=0;fontSize=15;fontColor=#666666;" parent="1" target="OsgkMpvyyOFpJFWNQCZw-7" edge="1"><mxGeometry relative="1" as="geometry"><mxPoint x="471" y="770" as="sourcePoint"/></mxGeometry></mxCell><mxCell id="OsgkMpvyyOFpJFWNQCZw-16" value="&lt;font color=&quot;#000000&quot;&gt;弹框支付&lt;/font&gt;" style="edgeLabel;html=1;align=center;verticalAlign=middle;resizable=0;points=[];fontSize=15;fontColor=#666666;" parent="OsgkMpvyyOFpJFWNQCZw-15" vertex="1" connectable="0"><mxGeometry x="0.0823" relative="1" as="geometry"><mxPoint y="-1" as="offset"/></mxGeometry></mxCell><mxCell id="rkcu3EZUj1pYs4N78qEw-20" value="开团购买" style="rounded=1;whiteSpace=wrap;html=1;fontSize=14;fillColor=#4EE58F;strokeColor=#B20000;fontColor=#ffffff;arcSize=50;fillStyle=solid;" parent="1" vertex="1"><mxGeometry x="348" y="707" width="80" height="44.5" as="geometry"/></mxCell><mxCell id="rkcu3EZUj1pYs4N78qEw-21" value="&lt;font color=&quot;#cc0000&quot; style=&quot;font-size: 23px;&quot;&gt;￥100&lt;/font&gt;" style="rounded=1;whiteSpace=wrap;html=1;fontSize=14;fillColor=default;fontStyle=1;align=left;strokeColor=none;" parent="1" vertex="1"><mxGeometry x="140" y="701" width="70" height="30" as="geometry"/></mxCell><mxCell id="rkcu3EZUj1pYs4N78qEw-22" value="&lt;strike&gt;&lt;font color=&quot;#4d4d4d&quot;&gt;￥ 80&lt;/font&gt;&lt;/strike&gt;" style="rounded=1;whiteSpace=wrap;html=1;fontSize=14;fillColor=default;fontStyle=1;align=left;strokeColor=none;" parent="1" vertex="1"><mxGeometry x="140" y="731" width="70" height="30" as="geometry"/></mxCell><mxCell id="OsgkMpvyyOFpJFWNQCZw-1" value="" style="rounded=1;whiteSpace=wrap;html=1;fontSize=23;fillColor=#d0cee2;arcSize=2;strokeColor=#56517e;" parent="1" vertex="1"><mxGeometry x="600" y="200" width="400" height="570" as="geometry"/></mxCell><mxCell id="OsgkMpvyyOFpJFWNQCZw-2" value="" style="rounded=1;whiteSpace=wrap;html=1;fontSize=23;fontColor=#4D4D4D;fillColor=default;arcSize=2;" parent="1" vertex="1"><mxGeometry x="630" y="330" width="340" height="350" as="geometry"/></mxCell><mxCell id="OsgkMpvyyOFpJFWNQCZw-3" value="欢迎登录 - 小傅哥拼团" style="rounded=1;whiteSpace=wrap;html=1;fontSize=23;fontColor=#4D4D4D;fillColor=none;" parent="1" vertex="1"><mxGeometry x="670" y="360" width="260" height="60" as="geometry"/></mxCell><mxCell id="OsgkMpvyyOFpJFWNQCZw-4" value="&lt;font color=&quot;#999999&quot;&gt;&amp;nbsp; 用户名&lt;/font&gt;" style="rounded=1;whiteSpace=wrap;html=1;fontSize=23;fontColor=#4D4D4D;fillColor=none;align=left;" parent="1" vertex="1"><mxGeometry x="670" y="455" width="260" height="60" as="geometry"/></mxCell><mxCell id="OsgkMpvyyOFpJFWNQCZw-5" value="&lt;font color=&quot;#999999&quot;&gt;&amp;nbsp;密码&lt;/font&gt;" style="rounded=1;whiteSpace=wrap;html=1;fontSize=23;fontColor=#4D4D4D;fillColor=none;align=left;" parent="1" vertex="1"><mxGeometry x="670" y="526" width="260" height="60" as="geometry"/></mxCell><mxCell id="OsgkMpvyyOFpJFWNQCZw-6" value="登录" style="rounded=1;whiteSpace=wrap;html=1;fontSize=23;fontColor=#ffffff;fillColor=#1ba1e2;align=center;strokeColor=#006EAF;" parent="1" vertex="1"><mxGeometry x="670" y="607" width="260" height="60" as="geometry"/></mxCell><mxCell id="OsgkMpvyyOFpJFWNQCZw-7" value="" style="rounded=1;whiteSpace=wrap;html=1;fontSize=23;arcSize=2;" parent="1" vertex="1"><mxGeometry x="120" y="800" width="400" height="440" as="geometry"/></mxCell><mxCell id="OsgkMpvyyOFpJFWNQCZw-8" value="&lt;font color=&quot;#000000&quot;&gt;请扫码支付&lt;/font&gt;" style="rounded=1;whiteSpace=wrap;html=1;fontSize=23;fontColor=#FFFFFF;fillColor=none;strokeColor=none;" parent="1" vertex="1"><mxGeometry x="160" y="840" width="320" height="40" as="geometry"/></mxCell><mxCell id="OsgkMpvyyOFpJFWNQCZw-9" value="&lt;font color=&quot;#666666&quot; style=&quot;font-size: 15px;&quot;&gt;支付金额 ￥40&lt;/font&gt;" style="rounded=1;whiteSpace=wrap;html=1;fontSize=23;fontColor=#FFFFFF;fillColor=none;strokeColor=none;" parent="1" vertex="1"><mxGeometry x="160" y="880" width="320" height="40" as="geometry"/></mxCell><mxCell id="OsgkMpvyyOFpJFWNQCZw-10" value="&lt;font color=&quot;#666666&quot;&gt;&lt;span style=&quot;font-size: 15px;&quot;&gt;二维码&lt;/span&gt;&lt;/font&gt;" style="rounded=1;whiteSpace=wrap;html=1;fontSize=23;fontColor=#FFFFFF;fillColor=none;" parent="1" vertex="1"><mxGeometry x="210" y="950" width="200" height="180" as="geometry"/></mxCell><mxCell id="OsgkMpvyyOFpJFWNQCZw-11" value="取消支付" style="rounded=1;whiteSpace=wrap;html=1;fontSize=14;fillColor=#f5f5f5;strokeColor=#666666;arcSize=25;fontColor=#333333;" parent="1" vertex="1"><mxGeometry x="200" y="1170" width="100" height="44.5" as="geometry"/></mxCell><mxCell id="OsgkMpvyyOFpJFWNQCZw-12" value="支付完成" style="rounded=1;whiteSpace=wrap;html=1;fontSize=14;fillColor=#008a00;strokeColor=#005700;fontColor=#ffffff;arcSize=31;" parent="1" vertex="1"><mxGeometry x="340" y="1170" width="100" height="44.5" as="geometry"/></mxCell></root></mxGraphModel></diagram></mxfile>